# xmcd
#
# Track frame offsets: 
#        150
#        24167
#        28457
#        48352
#        61832
#        83497
#        97897
#        115240
#        125942
#
# Disc length: 1914 seconds
#
# Revision: 0
# Processed by: cddbd v1.5.1PL0 Copyright (c) Steve Scherf et al.
# Submitted via: ExactAudioCopy v0.95a5
#
DISCID=6d077809
DTITLE=Golden Delicious and Pete Krebs - Golden Delicious and Pete Krebs
DYEAR=1998
DGENRE=Other
TTITLE0=House Carpenter
TTITLE1=Oooh! Trippy
TTITLE2=Makin' Wheels
TTITLE3=Jerusalem Ridge
TTITLE4=I Truly Understand
TTITLE5=Ashes Back to Vegas
TTITLE6=Dressed to the Nines
TTITLE7=America
TTITLE8=We Never Sleep
EXTD=
EXTT0=
EXTT1=
EXTT2=
EXTT3=
EXTT4=
EXTT5=
EXTT6=
EXTT7=
EXTT8=
PLAYORDER=
